# xmcd
#
# Track frame offsets:
#	182
#	19570
#	47487
#	78607
#	97317
#	126472
#	158635
#	189827
#	213212
#	240380
#	264955
#	287077
#
# Disc length: 4172 seconds
#
# Revision: 0
# Processed by: cddbd v1.5.1PL2 Copyright (c) Steve Scherf et al.
# Submitted via: EasyCDDAExtractor 8.2.3.1
#
DISCID=9a104a0c
DTITLE=Various Artist - Happy Anthems 3
DYEAR=1995
DGENRE=Happy Hardcore
TTITLE0=Scott Brown - Now Is The Time
TTITLE1=Midas - Imperial March
TTITLE2=Alk-E-D - Raw
TTITLE3=Ramos, Supremem and Sunset Regime - Metamorphosis (Scott Brown Twisted M
TTITLE3=ix)
TTITLE4=Midas - Crowd Control (Dougal Remix)
TTITLE5=Luna-C - 6Six6
TTITLE6=Happy Tunes - I Want You Baby
TTITLE7=Seduction - Disco Hardcore
TTITLE8=A Sense Of Summer - On Top (Hixxy Remix)
TTITLE9=Fat Controller - In Complete Darkness (Slipmatt Remix)
TTITLE10=Vibes and Wishdokta - No More Tears
TTITLE11=Happy Tunes - Feel So Good
EXTD=
EXTT0=
EXTT1=
EXTT2=
EXTT3=
EXTT4=
EXTT5=
EXTT6=
EXTT7=
EXTT8=
EXTT9=
EXTT10=
EXTT11=
PLAYORDER=
